<svg version="1.1" id="Layer_1" xmlns="http://www.w3.org/2000/svg" xmlns:xlink="http://www.w3.org/1999/xlink" x="0px" y="0px"
	 width="100%" viewBox="0 0 634 178" enable-background="new 0 0 634 178" xml:space="preserve">
<path fill="#FDFEFE" opacity="1.000000" stroke="none" 
	d="
M419.000000,179.000000 
	C279.376160,179.000000 140.252335,179.000000 1.064253,179.000000 
	C1.064253,119.727821 1.064253,60.455559 1.064253,1.091647 
	C212.333313,1.091647 423.666656,1.091647 634.966675,1.091647 
	C634.966675,60.414280 634.966675,119.707153 634.966675,179.000000 
	C563.122253,179.000000 491.311127,179.000000 419.000000,179.000000 
M529.835388,61.741428 
	C529.910278,57.945744 530.102417,54.145786 529.964478,50.357849 
	C529.935669,49.567127 528.687927,48.820786 527.080444,47.869724 
	C520.716309,47.931976 514.352173,47.994232 507.500916,47.914360 
	C507.338531,47.961674 507.176117,48.008991 506.189056,47.871494 
	C504.787689,47.933113 503.386292,47.994732 501.335938,47.888569 
	C500.896118,47.944405 500.456299,48.000240 499.223175,47.870590 
	C498.144226,47.929871 497.065308,47.989155 495.081268,47.874580 
	C491.275177,48.256607 487.469055,48.638638 483.363678,49.783905 
	C483.363678,75.817322 483.363678,101.850746 483.363678,127.836700 
	C499.349091,127.836700 514.574219,127.836700 529.760376,127.836700 
	C529.760376,122.933029 529.760376,118.371292 529.760376,113.341995 
	C519.856201,113.341995 510.271118,113.341995 500.479797,113.341995 
	C500.479797,107.144142 500.479797,101.425842 500.479797,95.112320 
	C509.334045,95.112320 517.884766,95.112320 526.575317,95.112320 
	C526.575317,90.106377 526.575317,85.700684 526.575317,80.770172 
	C517.746033,80.770172 509.182983,80.770172 500.462219,80.770172 
	C500.462219,74.505730 500.462219,68.770645 500.462219,62.176262 
	C510.190277,62.176262 519.625000,62.176262 529.835388,61.741428 
M605.219788,49.761635 
	C605.219788,67.508087 605.219788,85.254532 605.219788,104.508064 
	C603.832153,102.503685 603.283997,101.772591 602.798706,101.001968 
	C592.252991,84.257584 581.739258,67.492928 571.122742,50.793606 
	C570.345093,49.570343 568.873901,48.035549 567.656433,47.972466 
	C561.914001,47.674923 556.147522,47.839863 550.305603,47.839863 
	C550.305603,74.871765 550.305603,101.277199 550.305603,127.783554 
	C555.933044,127.783554 561.297180,127.783554 567.225159,127.783554 
	C567.225159,109.121918 567.225159,90.835167 567.225159,71.264236 
	C576.803223,86.730484 585.689087,100.969131 594.462158,115.276939 
	C602.783813,128.848663 602.731873,128.880737 618.519165,128.036911 
	C618.683777,128.028122 618.845886,127.974014 619.821411,128.114105 
	C623.417297,128.180847 621.611877,125.587807 621.989197,123.337837 
	C621.940125,122.891823 621.890991,122.445801 621.980469,121.133034 
	C621.934265,119.089226 621.888062,117.045425 621.987061,114.339401 
	C621.938843,113.892647 621.890625,113.445892 621.981873,112.070786 
	C621.981873,90.733917 621.981873,69.397057 621.981873,47.260605 
	C616.030823,47.886143 610.768860,48.439251 605.219788,49.761635 
M94.816528,148.380402 
	C94.816650,149.046280 94.825768,149.712280 94.815521,150.378006 
	C94.707840,157.375427 97.633713,162.720642 104.007599,165.628113 
	C110.252365,168.476669 115.583221,166.281036 120.386208,161.826294 
	C121.260796,161.015106 123.206383,160.852921 124.520348,161.105362 
	C131.667831,162.478531 137.361710,160.165787 141.592438,154.452530 
	C143.225693,152.246933 144.199982,149.553375 145.453522,147.122787 
	C162.905685,149.174332 173.186249,136.438797 167.860413,119.659470 
	C167.497269,118.515419 167.682938,116.594597 168.428391,115.792175 
	C178.610443,104.831978 176.861069,86.738503 167.415375,78.238686 
	C166.591583,77.497383 165.973022,75.927361 166.090347,74.831245 
	C167.756134,59.269753 165.961136,55.518822 153.080643,48.279388 
	C158.074066,26.151550 140.139114,13.405784 124.606918,20.286734 
	C124.052711,18.928097 123.557655,17.541021 122.933723,16.214561 
	C120.049751,10.083318 114.126770,6.490424 108.230530,7.250196 
	C101.914993,8.063997 96.278297,12.861065 95.478149,19.518490 
	C94.372009,28.721823 93.375908,38.140968 99.245461,46.404472 
	C92.175034,56.472244 95.158684,67.806419 95.076721,78.556038 
	C94.993828,89.428024 91.917007,101.009048 98.871384,108.940407 
	C97.289604,115.756577 95.446632,121.041092 94.963005,126.447205 
	C94.342438,133.384094 94.814606,140.418716 94.816528,148.380402 
M375.028198,126.738831 
	C386.880249,120.829842 391.737488,112.066216 389.385468,100.709267 
	C387.478394,91.500870 380.807495,86.893059 372.689301,83.903709 
	C365.836700,81.380379 358.799194,79.348282 351.996155,76.705864 
	C348.682983,75.418976 345.850281,73.062340 346.315063,68.829117 
	C346.790649,64.497658 349.513916,62.063728 353.572479,60.963737 
	C363.071198,58.389301 369.451752,61.716564 373.730621,71.728966 
	C378.836151,70.414734 383.991058,69.087784 390.039520,67.530830 
	C387.782654,63.463322 386.363068,59.855282 384.063324,56.942101 
	C374.208862,44.459229 347.387634,43.019936 335.966461,54.158302 
	C325.494415,64.371033 327.298279,80.209061 340.075836,87.371666 
	C344.512726,89.858795 349.599304,91.180153 354.371979,93.077057 
	C358.979919,94.908463 363.675873,96.568443 368.127563,98.727592 
	C371.887878,100.551407 372.829865,104.049820 372.189819,108.044968 
	C371.552826,112.021446 368.960388,114.020737 365.316437,115.019775 
	C355.270325,117.774017 348.095032,113.612862 343.174286,102.108521 
	C337.755920,103.389587 332.326813,104.673195 326.754028,105.990776 
	C327.638763,112.502113 330.305084,117.468323 335.051727,121.228973 
	C347.001282,130.696304 360.355286,130.817001 375.028198,126.738831 
M464.887787,102.880623 
	C464.109741,95.045891 459.781525,89.658867 452.961456,86.253906 
	C449.418762,84.485222 445.626709,83.192841 441.891998,81.837730 
	C436.893433,80.024055 431.762207,78.553299 426.840149,76.559547 
	C423.621155,75.255653 421.332001,72.855804 421.576385,68.914993 
	C421.826385,64.884132 424.191559,62.679119 427.778534,61.355061 
	C437.061035,57.928600 444.627319,61.544273 448.789673,71.694008 
	C453.941589,70.389275 459.131256,69.074989 464.360168,67.750763 
	C463.034790,60.711948 459.609558,55.682529 454.133087,52.332325 
	C443.232300,45.663834 431.492340,44.961063 419.634399,49.054184 
	C410.297974,52.276920 404.913574,59.047741 404.584900,69.237831 
	C404.262421,79.236107 409.627869,85.354103 418.396820,89.017334 
	C421.150635,90.167747 423.978729,91.140823 426.774841,92.189590 
	C432.056183,94.170494 437.687500,95.554321 442.478058,98.369545 
	C444.973999,99.836304 447.397675,103.884880 447.276703,106.654686 
	C447.155640,109.426025 444.277954,112.673782 441.745514,114.544006 
	C439.897400,115.908867 436.623383,115.783089 434.029877,115.617790 
	C425.531952,115.076180 420.435455,110.266510 418.722961,102.032898 
	C412.787964,103.437523 407.336182,104.727776 400.183014,106.420708 
	C403.846039,111.886612 406.142303,117.282974 410.095673,120.834938 
	C421.019440,130.649490 434.274384,131.048645 447.651825,127.369568 
	C459.624084,124.076950 464.960175,116.215660 464.887787,102.880623 
M266.053955,103.500000 
	C266.053955,111.608688 266.053955,119.717377 266.053955,127.728027 
	C282.039642,127.728027 297.405182,127.728027 312.716003,127.728027 
	C312.716003,122.836197 312.716003,118.389687 312.716003,113.366463 
	C302.787476,113.366463 293.067871,113.366463 283.306580,113.366463 
	C283.306580,107.038605 283.306580,101.296288 283.306580,94.981064 
	C292.135071,94.981064 300.681946,94.981064 309.227783,94.981064 
	C309.227783,89.986038 309.227783,85.574791 309.227783,80.624268 
	C300.325531,80.624268 291.755646,80.624268 283.346924,80.624268 
	C283.346924,74.312782 283.346924,68.552101 283.346924,62.393074 
	C293.300812,62.393074 302.919556,62.393074 312.675781,62.393074 
	C312.675781,57.398804 312.675781,52.822857 312.675781,48.196205 
	C297.041840,48.196205 281.677155,48.196205 266.053955,48.196205 
	C266.053955,66.549927 266.053955,84.524963 266.053955,103.500000 
M208.429123,122.319099 
	C208.429123,124.113441 208.429123,125.907776 208.429123,127.870171 
	C222.692078,127.870171 236.412354,127.870171 250.220795,127.870171 
	C250.220795,122.993484 250.220795,118.432709 250.220795,113.329102 
	C241.790222,113.329102 233.715210,113.329102 225.089767,113.329102 
	C225.089767,91.239960 225.089767,69.691765 225.089767,48.160324 
	C219.287445,48.160324 214.060379,48.160324 208.431854,48.160324 
	C208.431854,72.779594 208.431854,97.070366 208.429123,122.319099 
M64.589256,145.601471 
	C72.206390,148.533463 74.855804,152.824112 73.776482,161.065094 
	C73.457733,163.498856 73.261475,165.487946 76.323128,165.841507 
	C80.741394,166.351746 85.172752,166.748703 90.115623,167.246017 
	C89.937172,165.301178 89.816505,163.986069 89.692406,162.633636 
	C85.592247,162.314926 81.974785,162.033752 78.012856,161.725784 
	C79.470985,152.660538 76.265900,145.773163 68.134468,142.319122 
	C59.583385,138.686844 52.192707,141.357712 45.515476,150.519272 
	C39.411098,144.259262 33.688622,138.390884 27.925583,132.480927 
	C36.856949,124.111824 39.201958,117.807449 36.462086,110.640450 
	C32.791607,101.039139 25.005951,98.577309 15.308043,99.554527 
	C15.308043,91.008392 15.308043,82.811066 15.308043,74.219070 
	C24.221237,75.301117 30.508175,72.273102 34.132908,64.912125 
	C38.347023,56.354259 35.171276,49.250340 27.522577,42.218670 
	C33.436840,36.273621 39.006546,30.674921 44.906368,24.744385 
	C51.000618,32.972538 57.850761,36.228554 66.256897,33.314503 
	C75.873764,29.980751 78.626480,22.185740 77.526268,12.771861 
	C89.853188,10.063911 89.853188,10.063911 89.451508,6.792412 
	C85.021500,7.250926 80.576286,7.678588 76.139664,8.181930 
	C73.312737,8.502648 72.007790,9.770214 72.941429,12.888759 
	C73.496887,14.744078 73.762131,16.846037 73.512436,18.752586 
	C72.773933,24.391542 68.572029,28.870195 63.485722,29.895344 
	C57.924454,31.016222 52.581791,28.869642 49.460403,23.541378 
	C47.475746,20.153528 45.666428,19.693707 42.974537,22.412218 
	C36.801350,28.646463 30.607376,34.860764 24.495090,41.154297 
	C22.632120,43.072510 22.898270,44.714153 25.173628,46.490826 
	C31.193129,51.191036 32.857033,56.221333 30.735212,62.021564 
	C28.594988,67.872101 23.836864,70.534676 15.830387,69.936119 
	C12.916508,69.718269 11.188070,70.498405 11.165769,73.486519 
	C11.097816,82.591263 11.052936,91.699142 11.234900,100.801079 
	C11.293041,103.709381 12.624691,105.097282 16.154060,104.170769 
	C23.680523,102.194977 29.326227,104.981522 32.200096,111.421783 
	C34.852043,117.364716 32.537399,123.741425 25.931499,127.894646 
	C23.371748,129.503998 22.552015,131.111801 24.833963,133.376511 
	C31.411251,139.904114 38.024719,146.396118 44.689495,152.834290 
	C47.053852,155.118240 48.761795,153.911240 50.270611,151.565506 
	C53.447395,146.626602 57.923985,144.363968 64.589256,145.601471 
M65.875069,63.376541 
	C55.965302,74.273392 53.369957,88.475105 59.050594,100.720078 
	C64.877403,113.280136 77.120827,121.222168 89.685059,120.565277 
	C91.119301,117.293610 89.197235,116.742577 86.520615,116.294914 
	C70.880859,113.679184 60.475460,102.000542 60.406094,87.154190 
	C60.335835,72.116257 70.827461,60.321533 86.745178,57.739452 
	C89.680748,57.263264 90.884827,56.193916 89.570381,53.049358 
	C80.563362,53.413158 72.775581,56.468849 65.875069,63.376541 
z"/>
<path fill="#3A526C" opacity="1.000000" stroke="none" 
	d="
M621.842468,112.999130 
	C621.890625,113.445892 621.938843,113.892647 621.553223,114.760834 
	C619.506226,117.651253 618.827637,120.021210 621.841919,121.999786 
	C621.890991,122.445801 621.940125,122.891823 621.595093,123.724762 
	C620.470459,125.388138 619.739807,126.664597 619.009155,127.941055 
	C618.845886,127.974014 618.683777,128.028122 618.519165,128.036911 
	C602.731873,128.880737 602.783813,128.848663 594.462158,115.276939 
	C585.689087,100.969131 576.803223,86.730484 567.225159,71.264236 
	C567.225159,90.835167 567.225159,109.121918 567.225159,127.783554 
	C561.297180,127.783554 555.933044,127.783554 550.305603,127.783554 
	C550.305603,101.277199 550.305603,74.871765 550.305603,47.839863 
	C556.147522,47.839863 561.914001,47.674923 567.656433,47.972466 
	C568.873901,48.035549 570.345093,49.570343 571.122742,50.793606 
	C581.739258,67.492928 592.252991,84.257584 602.798706,101.001968 
	C603.283997,101.772591 603.832153,102.503685 605.219788,104.508064 
	C605.219788,85.254532 605.219788,67.508087 605.872192,49.383720 
	C608.515259,49.004498 610.505981,49.001537 612.496643,49.002163 
	C619.995117,49.004528 619.998474,49.004963 619.999329,56.263344 
	C620.001404,73.515877 619.949707,90.768784 620.080322,108.020317 
	C620.092957,109.684273 621.228333,111.339729 621.842468,112.999130 
z"/>
<path fill="#44576D" opacity="1.000000" stroke="none" 
	d="
M94.816254,147.895813 
	C94.814606,140.418716 94.342438,133.384094 94.963005,126.447205 
	C95.446632,121.041092 97.289604,115.756577 98.871384,108.940407 
	C91.917007,101.009048 94.993828,89.428024 95.076721,78.556038 
	C95.158684,67.806419 92.175034,56.472244 99.245461,46.404472 
	C93.375908,38.140968 94.372009,28.721823 95.478149,19.518490 
	C96.278297,12.861065 101.914993,8.063997 108.230530,7.250196 
	C114.126770,6.490424 120.049751,10.083318 122.933723,16.214561 
	C123.557655,17.541021 124.052711,18.928097 124.606918,20.286734 
	C140.139114,13.405784 158.074066,26.151550 153.080643,48.279388 
	C165.961136,55.518822 167.756134,59.269753 166.090347,74.831245 
	C165.973022,75.927361 166.591583,77.497383 167.415375,78.238686 
	C176.861069,86.738503 178.610443,104.831978 168.428391,115.792175 
	C167.682938,116.594597 167.497269,118.515419 167.860413,119.659470 
	C173.186249,136.438797 162.905685,149.174332 145.453522,147.122787 
	C144.199982,149.553375 143.225693,152.246933 141.592438,154.452530 
	C137.361710,160.165787 131.667831,162.478531 124.520348,161.105362 
	C123.206383,160.852921 121.260796,161.015106 120.386208,161.826294 
	C115.583221,166.281036 110.252365,168.476669 104.007599,165.628113 
	C97.633713,162.720642 94.707840,157.375427 94.815521,150.378006 
	C94.825768,149.712280 94.816650,149.046280 94.816254,147.895813 
M99.080658,67.541039 
	C99.063324,76.705536 98.896080,85.873627 99.116158,95.032417 
	C99.186012,97.939278 99.931671,100.971352 101.061043,103.654434 
	C101.668770,105.098251 104.176445,107.118073 105.072563,106.793762 
	C107.307426,105.984940 111.256920,106.899414 111.127144,102.399895 
	C111.087326,101.019287 111.823784,99.434769 112.657188,98.266296 
	C113.360367,97.280411 114.718575,96.761711 115.786858,96.036232 
	C115.949692,97.323402 116.596725,98.792839 116.192528,99.866562 
	C114.324677,104.828354 115.128502,108.895226 119.202492,112.449554 
	C120.159302,113.284325 120.348984,114.998375 120.891594,116.307907 
	C119.417473,116.080811 117.880226,116.037155 116.492310,115.559555 
	C115.624527,115.260941 114.904160,114.377060 114.250725,113.638123 
	C110.347923,109.224747 107.433319,108.772003 103.760475,113.450745 
	C101.359459,116.509354 99.560120,120.730225 99.228363,124.580193 
	C98.529800,132.686615 98.904831,140.892242 98.995743,149.055435 
	C99.019440,151.182541 99.329285,153.402100 100.012955,155.406891 
	C101.570824,159.975174 105.087883,162.502563 109.805573,162.453445 
	C114.419548,162.405411 117.257835,159.376389 119.100746,155.284531 
	C120.080139,153.109955 121.346954,151.064819 122.484032,148.961258 
	C123.182777,151.288208 123.881516,153.615158 124.695137,156.324677 
	C131.507309,158.595627 137.420670,155.362335 140.303024,147.613480 
	C142.512634,141.673157 138.715088,130.977158 131.859985,130.137253 
	C129.693939,131.956940 127.765053,133.794342 125.586769,135.261490 
	C125.010559,135.649582 123.525192,135.099579 122.749161,134.560318 
	C122.470146,134.366425 122.749931,132.517014 123.283257,132.137161 
	C128.649734,128.314911 129.505600,123.511086 126.992935,117.658241 
	C126.693314,116.960327 127.635216,115.729416 128.001633,114.745560 
	C128.963058,115.206375 130.471420,115.435051 130.783905,116.171303 
	C131.740662,118.425522 132.094696,120.929253 132.968933,123.227219 
	C133.480225,124.571175 134.256317,126.186798 135.396713,126.854378 
	C140.258667,129.700546 143.692566,133.540253 144.544907,139.188095 
	C144.993942,142.163528 146.728912,142.904816 149.291550,143.196884 
	C155.047165,143.852890 159.474060,141.556702 162.484299,136.888794 
	C165.852463,131.665909 165.916046,126.068344 163.273621,119.903099 
	C156.608215,124.054115 150.416183,123.474152 145.343079,118.188629 
	C142.258667,114.975075 139.616028,112.001823 134.612625,112.808266 
	C133.881027,112.926186 132.872314,111.324860 131.991821,110.519043 
	C132.843323,109.958778 133.725922,108.873779 134.541351,108.922112 
	C140.522034,109.276611 143.968262,106.717545 145.085815,100.755112 
	C145.262268,99.813751 146.777191,99.123260 147.673264,98.316780 
	C148.164230,99.425140 149.301666,100.734558 149.030640,101.605919 
	C148.030060,104.822968 146.563751,107.895164 145.154678,111.307205 
	C151.009872,119.937599 157.848129,120.612953 165.214783,112.880478 
	C174.537903,103.094383 172.678253,85.859528 161.063599,78.989426 
	C157.741745,77.024529 153.216827,76.578407 149.234039,76.544220 
	C147.955780,76.533234 146.804855,80.220932 145.289352,81.947586 
	C144.459763,82.892776 142.990524,83.276535 141.809723,83.913452 
	C141.728806,82.599312 141.693207,81.280472 141.557602,79.972000 
	C141.269531,77.192787 141.006561,74.407013 140.578842,71.647873 
	C140.357697,70.221313 139.806274,68.845947 139.404068,67.447456 
	C140.958420,67.969536 142.602509,68.317596 144.042969,69.060501 
	C145.620544,69.874123 146.903732,71.679924 148.502045,71.950752 
	C152.821960,72.682755 157.241089,72.829475 161.759018,73.220337 
	C164.499756,65.634209 161.615982,57.462074 154.803299,54.020771 
	C152.246689,52.729351 150.579742,53.110710 148.183060,54.945072 
	C144.491287,57.770687 140.015305,59.554157 135.966293,61.939800 
	C134.492615,62.808079 133.115875,63.984554 131.992828,65.278908 
	C127.616539,70.322769 125.882828,76.117188 127.334396,82.767357 
	C127.499138,83.522095 127.329880,84.549599 126.912094,85.185661 
	C126.254211,86.187271 125.253738,86.963844 124.398293,87.835686 
	C123.889717,86.659203 122.877098,85.449966 122.951088,84.311340 
	C123.636711,73.760796 121.815758,70.614449 112.556068,66.467781 
	C111.571655,66.026939 110.963554,64.745796 110.180870,63.854481 
	C111.415123,63.442402 112.938477,62.353828 113.833237,62.736191 
	C117.563126,64.330116 121.103912,66.366554 124.861855,68.317444 
	C130.483063,61.900501 130.457123,53.563038 124.275543,48.369282 
	C117.467209,54.306870 110.113655,53.774475 102.748802,49.709118 
	C99.172546,54.310429 99.104317,54.638535 99.080658,67.541039 
M132.764221,53.966480 
	C132.987823,55.243557 133.211441,56.520638 133.431076,57.775017 
	C143.014389,56.957169 148.912506,50.787697 149.544037,41.157154 
	C150.009216,34.063229 145.771652,26.638180 139.763351,24.019424 
	C133.348694,21.223551 127.494095,22.733967 121.880051,28.639194 
	C121.651802,28.879282 121.510284,29.311991 121.248627,29.391026 
	C120.127884,29.729580 118.977226,29.969147 117.837479,30.244801 
	C117.864021,29.101849 117.640312,27.878153 117.976814,26.835213 
	C118.459465,25.339315 119.856483,24.015434 119.973045,22.547438 
	C120.326057,18.101944 116.606163,13.198318 112.375107,11.966605 
	C108.009644,10.695767 102.422562,12.710689 100.855782,17.352871 
	C98.047470,25.673523 97.412888,34.328609 101.987274,42.372334 
	C104.738060,47.209393 110.140472,49.414089 115.189232,48.279888 
	C121.833321,46.787300 125.122337,42.238659 126.421623,35.781254 
	C126.722893,34.283928 128.037766,32.990547 128.886246,31.603323 
	C129.404480,33.232769 130.800125,35.237240 130.291290,36.427696 
	C127.901337,42.019241 128.212967,47.031815 132.072739,51.788387 
	C132.361969,52.144825 132.372620,52.727310 132.764221,53.966480 
z"/>
<path fill="#3A526C" opacity="1.000000" stroke="none" 
	d="
M374.650543,126.854706 
	C360.355286,130.817001 347.001282,130.696304 335.051727,121.228973 
	C330.305084,117.468323 327.638763,112.502113 326.754028,105.990776 
	C332.326813,104.673195 337.755920,103.389587 343.174286,102.108521 
	C348.095032,113.612862 355.270325,117.774017 365.316437,115.019775 
	C368.960388,114.020737 371.552826,112.021446 372.189819,108.044968 
	C372.829865,104.049820 371.887878,100.551407 368.127563,98.727592 
	C363.675873,96.568443 358.979919,94.908463 354.371979,93.077057 
	C349.599304,91.180153 344.512726,89.858795 340.075836,87.371666 
	C327.298279,80.209061 325.494415,64.371033 335.966461,54.158302 
	C347.387634,43.019936 374.208862,44.459229 384.063324,56.942101 
	C386.363068,59.855282 387.782654,63.463322 390.039520,67.530830 
	C383.991058,69.087784 378.836151,70.414734 373.730621,71.728966 
	C369.451752,61.716564 363.071198,58.389301 353.572479,60.963737 
	C349.513916,62.063728 346.790649,64.497658 346.315063,68.829117 
	C345.850281,73.062340 348.682983,75.418976 351.996155,76.705864 
	C358.799194,79.348282 365.836700,81.380379 372.689301,83.903709 
	C380.807495,86.893059 387.478394,91.500870 389.385468,100.709267 
	C391.737488,112.066216 386.880249,120.829842 374.650543,126.854706 
z"/>
<path fill="#3B526C" opacity="1.000000" stroke="none" 
	d="
M464.922058,103.315781 
	C464.960175,116.215660 459.624084,124.076950 447.651825,127.369568 
	C434.274384,131.048645 421.019440,130.649490 410.095673,120.834938 
	C406.142303,117.282974 403.846039,111.886612 400.183014,106.420708 
	C407.336182,104.727776 412.787964,103.437523 418.722961,102.032898 
	C420.435455,110.266510 425.531952,115.076180 434.029877,115.617790 
	C436.623383,115.783089 439.897400,115.908867 441.745514,114.544006 
	C444.277954,112.673782 447.155640,109.426025 447.276703,106.654686 
	C447.397675,103.884880 444.973999,99.836304 442.478058,98.369545 
	C437.687500,95.554321 432.056183,94.170494 426.774841,92.189590 
	C423.978729,91.140823 421.150635,90.167747 418.396820,89.017334 
	C409.627869,85.354103 404.262421,79.236107 404.584900,69.237831 
	C404.913574,59.047741 410.297974,52.276920 419.634399,49.054184 
	C431.492340,44.961063 443.232300,45.663834 454.133087,52.332325 
	C459.609558,55.682529 463.034790,60.711948 464.360168,67.750763 
	C459.131256,69.074989 453.941589,70.389275 448.789673,71.694008 
	C444.627319,61.544273 437.061035,57.928600 427.778534,61.355061 
	C424.191559,62.679119 421.826385,64.884132 421.576385,68.914993 
	C421.332001,72.855804 423.621155,75.255653 426.840149,76.559547 
	C431.762207,78.553299 436.893433,80.024055 441.891998,81.837730 
	C445.626709,83.192841 449.418762,84.485222 452.961456,86.253906 
	C459.781525,89.658867 464.109741,95.045891 464.922058,103.315781 
z"/>
<path fill="#3A526C" opacity="1.000000" stroke="none" 
	d="
M266.053955,103.000000 
	C266.053955,84.524963 266.053955,66.549927 266.053955,48.196205 
	C281.677155,48.196205 297.041840,48.196205 312.675781,48.196205 
	C312.675781,52.822857 312.675781,57.398804 312.675781,62.393074 
	C302.919556,62.393074 293.300812,62.393074 283.346924,62.393074 
	C283.346924,68.552101 283.346924,74.312782 283.346924,80.624268 
	C291.755646,80.624268 300.325531,80.624268 309.227783,80.624268 
	C309.227783,85.574791 309.227783,89.986038 309.227783,94.981064 
	C300.681946,94.981064 292.135071,94.981064 283.306580,94.981064 
	C283.306580,101.296288 283.306580,107.038605 283.306580,113.366463 
	C293.067871,113.366463 302.787476,113.366463 312.716003,113.366463 
	C312.716003,118.389687 312.716003,122.836197 312.716003,127.728027 
	C297.405182,127.728027 282.039642,127.728027 266.053955,127.728027 
	C266.053955,119.717377 266.053955,111.608688 266.053955,103.000000 
z"/>
<path fill="#3B536D" opacity="1.000000" stroke="none" 
	d="
M507.988037,48.056488 
	C514.352173,47.994232 520.716309,47.931976 527.594971,48.371719 
	C528.426147,53.307899 528.742920,57.742081 529.059692,62.176262 
	C519.625000,62.176262 510.190277,62.176262 500.462219,62.176262 
	C500.462219,68.770645 500.462219,74.505730 500.462219,80.770172 
	C509.182983,80.770172 517.746033,80.770172 526.575317,80.770172 
	C526.575317,85.700684 526.575317,90.106377 526.575317,95.112320 
	C517.884766,95.112320 509.334045,95.112320 500.479797,95.112320 
	C500.479797,101.425842 500.479797,107.144142 500.479797,113.341995 
	C510.271118,113.341995 519.856201,113.341995 529.760376,113.341995 
	C529.760376,118.371292 529.760376,122.933029 529.760376,127.836700 
	C514.574219,127.836700 499.349091,127.836700 483.363678,127.836700 
	C483.363678,101.850746 483.363678,75.817322 483.998901,49.397903 
	C488.418182,48.690742 492.202271,48.369587 495.986359,48.048435 
	C497.065308,47.989155 498.144226,47.929871 499.764709,48.179939 
	C500.865814,48.344978 501.425354,48.200668 501.984924,48.056351 
	C503.386292,47.994732 504.787689,47.933113 506.689270,48.122219 
	C507.455658,48.267460 507.721863,48.161976 507.988037,48.056488 
z"/>
<path fill="#3D556F" opacity="1.000000" stroke="none" 
	d="
M208.430481,121.840118 
	C208.431854,97.070366 208.431854,72.779594 208.431854,48.160324 
	C214.060379,48.160324 219.287445,48.160324 225.089767,48.160324 
	C225.089767,69.691765 225.089767,91.239960 225.089767,113.329102 
	C233.715210,113.329102 241.790222,113.329102 250.220795,113.329102 
	C250.220795,118.432709 250.220795,122.993484 250.220795,127.870171 
	C236.412354,127.870171 222.692078,127.870171 208.429123,127.870171 
	C208.429123,125.907776 208.429123,124.113441 208.430481,121.840118 
z"/>
<path fill="#46596E" opacity="1.000000" stroke="none" 
	d="
M64.218575,145.466553 
	C57.923985,144.363968 53.447395,146.626602 50.270611,151.565506 
	C48.761795,153.911240 47.053852,155.118240 44.689495,152.834290 
	C38.024719,146.396118 31.411251,139.904114 24.833963,133.376511 
	C22.552015,131.111801 23.371748,129.503998 25.931499,127.894646 
	C32.537399,123.741425 34.852043,117.364716 32.200096,111.421783 
	C29.326227,104.981522 23.680523,102.194977 16.154060,104.170769 
	C12.624691,105.097282 11.293041,103.709381 11.234900,100.801079 
	C11.052936,91.699142 11.097816,82.591263 11.165769,73.486519 
	C11.188070,70.498405 12.916508,69.718269 15.830387,69.936119 
	C23.836864,70.534676 28.594988,67.872101 30.735212,62.021564 
	C32.857033,56.221333 31.193129,51.191036 25.173628,46.490826 
	C22.898270,44.714153 22.632120,43.072510 24.495090,41.154297 
	C30.607376,34.860764 36.801350,28.646463 42.974537,22.412218 
	C45.666428,19.693707 47.475746,20.153528 49.460403,23.541378 
	C52.581791,28.869642 57.924454,31.016222 63.485722,29.895344 
	C68.572029,28.870195 72.773933,24.391542 73.512436,18.752586 
	C73.762131,16.846037 73.496887,14.744078 72.941429,12.888759 
	C72.007790,9.770214 73.312737,8.502648 76.139664,8.181930 
	C80.576286,7.678588 85.021500,7.250926 89.451508,6.792412 
	C89.853188,10.063911 89.853188,10.063911 77.526268,12.771861 
	C78.626480,22.185740 75.873764,29.980751 66.256897,33.314503 
	C57.850761,36.228554 51.000618,32.972538 44.906368,24.744385 
	C39.006546,30.674921 33.436840,36.273621 27.522577,42.218670 
	C35.171276,49.250340 38.347023,56.354259 34.132908,64.912125 
	C30.508175,72.273102 24.221237,75.301117 15.308043,74.219070 
	C15.308043,82.811066 15.308043,91.008392 15.308043,99.554527 
	C25.005951,98.577309 32.791607,101.039139 36.462086,110.640450 
	C39.201958,117.807449 36.856949,124.111824 27.925583,132.480927 
	C33.688622,138.390884 39.411098,144.259262 45.515476,150.519272 
	C52.192707,141.357712 59.583385,138.686844 68.134468,142.319122 
	C76.265900,145.773163 79.470985,152.660538 78.012856,161.725784 
	C81.974785,162.033752 85.592247,162.314926 89.692406,162.633636 
	C89.816505,163.986069 89.937172,165.301178 90.115623,167.246017 
	C85.172752,166.748703 80.741394,166.351746 76.323128,165.841507 
	C73.261475,165.487946 73.457733,163.498856 73.776482,161.065094 
	C74.855804,152.824112 72.206390,148.533463 64.218575,145.466553 
z"/>
<path fill="#475A6F" opacity="1.000000" stroke="none" 
	d="
M66.122665,63.121498 
	C72.775581,56.468849 80.563362,53.413158 89.570381,53.049358 
	C90.884827,56.193916 89.680748,57.263264 86.745178,57.739452 
	C70.827461,60.321533 60.335835,72.116257 60.406094,87.154190 
	C60.475460,102.000542 70.880859,113.679184 86.520615,116.294914 
	C89.197235,116.742577 91.119301,117.293610 89.685059,120.565277 
	C77.120827,121.222168 64.877403,113.280136 59.050594,100.720078 
	C53.369957,88.475105 55.965302,74.273392 66.122665,63.121498 
z"/>
<path fill="#3B4E61" opacity="1.000000" stroke="none" 
	d="
M621.912170,112.534958 
	C621.228333,111.339729 620.092957,109.684273 620.080322,108.020317 
	C619.949707,90.768784 620.001404,73.515877 619.999329,56.263344 
	C619.998474,49.004963 619.995117,49.004528 612.496643,49.002163 
	C610.505981,49.001537 608.515259,49.004498 606.015747,48.999084 
	C610.768860,48.439251 616.030823,47.886143 621.981873,47.260605 
	C621.981873,69.397057 621.981873,90.733917 621.912170,112.534958 
z"/>
<path fill="#3E4D61" opacity="1.000000" stroke="none" 
	d="
M529.447510,61.958847 
	C528.742920,57.742081 528.426147,53.307899 528.055664,48.463852 
	C528.687927,48.820786 529.935669,49.567127 529.964478,50.357849 
	C530.102417,54.145786 529.910278,57.945744 529.447510,61.958847 
z"/>
<path fill="#3B4E61" opacity="1.000000" stroke="none" 
	d="
M621.911194,121.566406 
	C618.827637,120.021210 619.506226,117.651253 621.480591,115.091934 
	C621.888062,117.045425 621.934265,119.089226 621.911194,121.566406 
z"/>
<path fill="#3E4D61" opacity="1.000000" stroke="none" 
	d="
M495.533813,47.961510 
	C492.202271,48.369587 488.418182,48.690742 484.148529,49.016281 
	C487.469055,48.638638 491.275177,48.256607 495.533813,47.961510 
z"/>
<path fill="#3B4E61" opacity="1.000000" stroke="none" 
	d="
M619.415283,128.027588 
	C619.739807,126.664597 620.470459,125.388138 621.524231,124.055748 
	C621.611877,125.587807 623.417297,128.180847 619.415283,128.027588 
z"/>
<path fill="#3E4D61" opacity="1.000000" stroke="none" 
	d="
M501.660431,47.972462 
	C501.425354,48.200668 500.865814,48.344978 500.161377,48.272682 
	C500.456299,48.000240 500.896118,47.944405 501.660431,47.972462 
z"/>
<path fill="#3E4D61" opacity="1.000000" stroke="none" 
	d="
M507.744476,47.985424 
	C507.721863,48.161976 507.455658,48.267460 507.101624,48.214626 
	C507.176117,48.008991 507.338531,47.961674 507.744476,47.985424 
z"/>
<path fill="#FAFCFC" opacity="1.000000" stroke="none" 
	d="
M99.082733,67.049896 
	C99.104317,54.638535 99.172546,54.310429 102.748802,49.709118 
	C110.113655,53.774475 117.467209,54.306870 124.275543,48.369282 
	C130.457123,53.563038 130.483063,61.900501 124.861855,68.317444 
	C121.103912,66.366554 117.563126,64.330116 113.833237,62.736191 
	C112.938477,62.353828 111.415123,63.442402 110.180870,63.854477 
	C110.963554,64.745796 111.571655,66.026939 112.556068,66.467781 
	C121.815758,70.614449 123.636711,73.760796 122.951088,84.311340 
	C122.877098,85.449966 123.889717,86.659203 124.398300,87.835693 
	C125.253738,86.963844 126.254211,86.187271 126.912094,85.185661 
	C127.329880,84.549599 127.499138,83.522095 127.334396,82.767357 
	C125.882828,76.117188 127.616539,70.322769 131.992828,65.278908 
	C133.115875,63.984554 134.492615,62.808079 135.966293,61.939800 
	C140.015305,59.554157 144.491287,57.770687 148.183060,54.945072 
	C150.579742,53.110710 152.246689,52.729351 154.803299,54.020771 
	C161.615982,57.462074 164.499756,65.634209 161.759018,73.220337 
	C157.241089,72.829475 152.821960,72.682755 148.502045,71.950752 
	C146.903732,71.679924 145.620544,69.874123 144.042969,69.060501 
	C142.602509,68.317596 140.958420,67.969536 139.404068,67.447456 
	C139.806274,68.845947 140.357697,70.221313 140.578842,71.647873 
	C141.006561,74.407013 141.269531,77.192787 141.557602,79.972000 
	C141.693207,81.280472 141.728806,82.599312 141.809723,83.913452 
	C142.990524,83.276535 144.459763,82.892776 145.289352,81.947586 
	C146.804855,80.220932 147.955780,76.533234 149.234039,76.544220 
	C153.216827,76.578407 157.741745,77.024529 161.063599,78.989426 
	C172.678253,85.859528 174.537903,103.094383 165.214783,112.880478 
	C157.848129,120.612953 151.009872,119.937599 145.154678,111.307205 
	C146.563751,107.895164 148.030060,104.822968 149.030640,101.605919 
	C149.301666,100.734558 148.164230,99.425140 147.673264,98.316772 
	C146.777191,99.123260 145.262268,99.813751 145.085815,100.755112 
	C143.968262,106.717545 140.522034,109.276611 134.541351,108.922112 
	C133.725922,108.873779 132.843323,109.958778 131.991821,110.519043 
	C132.872314,111.324860 133.881027,112.926186 134.612625,112.808266 
	C139.616028,112.001823 142.258667,114.975075 145.343079,118.188629 
	C150.416183,123.474152 156.608215,124.054115 163.273621,119.903099 
	C165.916046,126.068344 165.852463,131.665909 162.484299,136.888794 
	C159.474060,141.556702 155.047165,143.852890 149.291550,143.196884 
	C146.728912,142.904816 144.993942,142.163528 144.544907,139.188095 
	C143.692566,133.540253 140.258667,129.700546 135.396713,126.854378 
	C134.256317,126.186798 133.480225,124.571175 132.968933,123.227219 
	C132.094696,120.929253 131.740662,118.425522 130.783905,116.171303 
	C130.471420,115.435051 128.963058,115.206375 128.001633,114.745560 
	C127.635216,115.729416 126.693314,116.960327 126.992935,117.658241 
	C129.505600,123.511086 128.649734,128.314911 123.283257,132.137161 
	C122.749931,132.517014 122.470146,134.366425 122.749161,134.560318 
	C123.525192,135.099579 125.010559,135.649582 125.586769,135.261490 
	C127.765053,133.794342 129.693939,131.956940 131.859985,130.137253 
	C138.715088,130.977158 142.512634,141.673157 140.303024,147.613480 
	C137.420670,155.362335 131.507309,158.595627 124.695137,156.324677 
	C123.881516,153.615158 123.182777,151.288208 122.484032,148.961258 
	C121.346954,151.064819 120.080139,153.109955 119.100746,155.284531 
	C117.257835,159.376389 114.419548,162.405411 109.805573,162.453445 
	C105.087883,162.502563 101.570824,159.975174 100.012955,155.406891 
	C99.329285,153.402100 99.019440,151.182541 98.995743,149.055435 
	C98.904831,140.892242 98.529800,132.686615 99.228363,124.580193 
	C99.560120,120.730225 101.359459,116.509354 103.760475,113.450745 
	C107.433319,108.772003 110.347923,109.224747 114.250725,113.638123 
	C114.904160,114.377060 115.624527,115.260941 116.492310,115.559555 
	C117.880226,116.037155 119.417473,116.080811 120.891586,116.307907 
	C120.348984,114.998375 120.159302,113.284325 119.202492,112.449554 
	C115.128502,108.895226 114.324677,104.828354 116.192528,99.866562 
	C116.596725,98.792839 115.949692,97.323402 115.786858,96.036232 
	C114.718575,96.761711 113.360367,97.280411 112.657188,98.266296 
	C111.823784,99.434769 111.087326,101.019287 111.127144,102.399895 
	C111.256920,106.899414 107.307426,105.984940 105.072563,106.793762 
	C104.176445,107.118073 101.668770,105.098251 101.061043,103.654434 
	C99.931671,100.971352 99.186012,97.939278 99.116158,95.032417 
	C98.896080,85.873627 99.063324,76.705536 99.082733,67.049896 
z"/>
<path fill="#F9FBFB" opacity="1.000000" stroke="none" 
	d="
M132.638489,53.585594 
	C132.372620,52.727310 132.361969,52.144825 132.072739,51.788387 
	C128.212967,47.031815 127.901337,42.019241 130.291290,36.427696 
	C130.800125,35.237240 129.404480,33.232769 128.886246,31.603321 
	C128.037766,32.990547 126.722893,34.283928 126.421623,35.781254 
	C125.122337,42.238659 121.833321,46.787300 115.189232,48.279888 
	C110.140472,49.414089 104.738060,47.209393 101.987274,42.372334 
	C97.412888,34.328609 98.047470,25.673523 100.855782,17.352871 
	C102.422562,12.710689 108.009644,10.695767 112.375107,11.966605 
	C116.606163,13.198318 120.326057,18.101944 119.973045,22.547438 
	C119.856483,24.015434 118.459465,25.339315 117.976814,26.835213 
	C117.640312,27.878153 117.864021,29.101849 117.837479,30.244801 
	C118.977226,29.969147 120.127884,29.729580 121.248627,29.391026 
	C121.510284,29.311991 121.651802,28.879282 121.880051,28.639194 
	C127.494095,22.733967 133.348694,21.223551 139.763351,24.019424 
	C145.771652,26.638180 150.009216,34.063229 149.544037,41.157154 
	C148.912506,50.787697 143.014389,56.957169 133.431076,57.775017 
	C133.211441,56.520638 132.987823,55.243557 132.638489,53.585594 
z"/>
</svg>